<svg width="57" height="56" viewBox="0 0 57 56" fill="none" xmlns="http://www.w3.org/2000/svg">
<path d="M12.0094 37.3124C12.2733 37.3127 12.5347 37.2618 12.7785 37.1626C13.0223 37.0634 13.2438 36.9179 13.4302 36.7344L24.735 25.6314L29.3421 30.1563C29.5287 30.3396 29.7502 30.4849 29.994 30.5841C30.2377 30.6833 30.499 30.7343 30.7629 30.7343C31.0268 30.7343 31.2881 30.6833 31.5319 30.5841C31.7757 30.4849 31.9972 30.3396 32.1837 30.1563L44.8273 17.7385L44.8266 22.1828C44.8266 22.7061 45.0383 23.2081 45.4151 23.5782C45.7919 23.9483 46.303 24.1562 46.8359 24.1562C47.3688 24.1562 47.8798 23.9483 48.2567 23.5782C48.6335 23.2081 48.8452 22.7061 48.8452 22.1828L48.8467 12.9734C48.8467 12.45 48.635 11.9481 48.2582 11.578C47.8813 11.2079 47.3703 11 46.8374 11H37.4606C36.9277 11 36.4166 11.2079 36.0398 11.578C35.663 11.9481 35.4513 12.45 35.4513 12.9734C35.4513 13.4968 35.663 13.9988 36.0398 14.3688C36.4166 14.7389 36.9277 14.9469 37.4606 14.9469H41.9865L30.7629 25.97L26.1558 21.4451C25.9692 21.2618 25.7477 21.1165 25.5039 21.0173C25.2602 20.9181 24.9989 20.8671 24.735 20.8671C24.4711 20.8671 24.2098 20.9181 23.966 21.0173C23.7223 21.1165 23.5007 21.2618 23.3142 21.4451L10.5885 33.9435C10.3075 34.2195 10.1161 34.5711 10.0386 34.9539C9.96108 35.3367 10.0009 35.7335 10.153 36.0941C10.305 36.4547 10.5626 36.763 10.893 36.9798C11.2235 37.1966 11.612 37.3124 12.0094 37.3124Z" fill="white"/>
<path d="M46.8373 41.2598H12.0093C11.4764 41.2598 10.9653 41.4677 10.5885 41.8378C10.2117 42.2079 10 42.7098 10 43.2332C10 43.7566 10.2117 44.2585 10.5885 44.6286C10.9653 44.9987 11.4764 45.2066 12.0093 45.2066H46.8373C47.3702 45.2066 47.8813 44.9987 48.2581 44.6286C48.6349 44.2585 48.8466 43.7566 48.8466 43.2332C48.8466 42.7098 48.6349 42.2079 48.2581 41.8378C47.8813 41.4677 47.3702 41.2598 46.8373 41.2598Z" fill="white"/>
</svg>
