<svg fill="#44ddfc" id="Capa_1" enable-background="new 0 0 512 512" height="512" viewBox="0 0 512 512" width="512" xmlns="http://www.w3.org/2000/svg"><g><path d="m243.479 395.838c35.094-35.094 35.094-92.186 0-127.28-35.092-35.092-92.186-35.092-127.278 0-35.094 35.094-35.094 92.186 0 127.28 35.092 35.092 92.186 35.092 127.278 0zm-63.638-127.28c5.858-5.858 15.355-5.859 21.215 0 5.856 5.858 5.856 15.355 0 21.213-5.859 5.859-15.357 5.858-21.215 0-5.857-5.86-5.857-15.356 0-21.213zm-31.82 53.032c17.545-17.545 46.093-17.545 63.638 0 17.547 17.547 17.547 46.093 0 63.64-17.545 17.547-46.093 17.547-63.638 0-17.547-17.546-17.547-46.093 0-63.64z"/><circle cx="179.84" cy="353.411" r="15"/><path d="m196.372 510.998c54.047-5.801 101.032-35.777 132.292-84.397l180.958-276.206c3.646-5.676 3.056-13.103-1.461-18.137-4.702-5.138-11.84-6.412-17.867-3.387l-44.612 22.3 64.728-129.465c5.779-11.539-8.577-25.895-20.116-20.116l-129.466 64.729 22.3-44.612c3.016-6.039 1.472-13.508-3.386-17.867-5.035-4.515-12.462-5.107-18.138-1.461l-276.167 180.994c-48.642 31.282-78.638 78.245-84.439 132.232-5.685 52.982 13.103 105.414 51.563 143.871 38.439 38.44 90.86 57.219 143.811 51.522zm-101.384-263.653c46.787-46.787 122.919-46.787 169.706 0s46.787 122.919 0 169.706-122.919 46.787-169.706 0-46.787-122.919 0-169.706z"/></g></svg>