<svg id="Layer_1" fill="#44ddfc" enable-background="new 0 0 512.323 512.323" height="512" viewBox="0 0 512.323 512.323" width="512" xmlns="http://www.w3.org/2000/svg"><g><path d="m512.323 21.466-21.153-21.274-58.024 57.696c-29.222-24.381-65.698-37.66-104.227-37.66-43.516 0-84.437 16.938-115.224 47.693l-213.695 213.494 230.416 230.716 213.729-213.525c60.027-59.966 63.433-155.478 10.201-219.49zm-89.381 255.916-192.502 192.319-188.017-188.263 192.475-192.292c25.122-25.096 58.512-38.917 94.021-38.917 30.475 0 59.375 10.184 82.838 28.927l-35.675 35.474c-5.356-2.381-11.197-3.645-17.235-3.645-11.328 0-21.981 4.408-29.996 12.413-16.561 16.539-16.579 43.469-.039 60.03 8.02 8.03 18.687 12.452 30.035 12.452 11.328 0 21.98-4.408 29.996-12.413 12.899-12.883 15.758-32.068 8.578-47.748l35.55-35.349c41.65 52.204 38.303 128.729-10.029 177.012zm-51.645-123.964c0 6.901-5.594 12.495-12.495 12.495s-12.495-5.594-12.495-12.495 5.594-12.495 12.495-12.495 12.495 5.594 12.495 12.495z"/><path d="m129.075 263.42h206.935v30.002h-206.935z" transform="matrix(.99 -.142 .142 .99 -37.154 35.814)"/><path d="m233.13 237.368c11.057 0 21.452-4.306 29.271-12.124 16.141-16.141 16.141-42.402 0-58.543-7.819-7.818-18.214-12.124-29.271-12.124s-21.452 4.306-29.272 12.124c-16.14 16.141-16.14 42.402.001 58.544 7.819 7.818 18.214 12.123 29.271 12.123zm.002-52.797c6.3 0 11.407 5.107 11.407 11.407s-5.107 11.407-11.407 11.407-11.407-5.107-11.407-11.407 5.107-11.407 11.407-11.407z"/><path d="m234.965 318.626c-11.057 0-21.452 4.306-29.272 12.124-16.14 16.141-16.14 42.402.001 58.544 7.819 7.817 18.214 12.123 29.271 12.123s21.452-4.306 29.271-12.124c16.14-16.141 16.14-42.402 0-58.543-7.819-7.818-18.214-12.124-29.271-12.124zm-.003 52.827c-6.3 0-11.407-5.107-11.407-11.407s5.107-11.407 11.407-11.407 11.407 5.107 11.407 11.407-5.108 11.407-11.407 11.407z"/></g></svg>