<svg width="47" height="47" viewBox="0 0 47 47" fill="none" xmlns="http://www.w3.org/2000/svg">
<path d="M21.8201 1.9048C21.7377 1.2544 22.0385 0.614648 22.5922 0.26342C23.1455 -0.0878068 23.8525 -0.0878068 24.4057 0.26342C24.9594 0.614648 25.2602 1.2544 25.1774 1.9048V6.71174H21.8201V1.9048Z" fill="white"/>
<path d="M11.7471 10.9086C11.7471 9.51808 12.8745 8.39062 14.2651 8.39062H20.1405V16.5549C20.1405 16.5951 20.1507 16.6328 20.1515 16.6729C20.1523 16.7135 20.1405 16.7463 20.1405 16.784C20.1405 18.6381 21.6437 20.1414 23.4978 20.1414C25.3523 20.1414 26.8552 18.6381 26.8552 16.784C26.8552 14.9295 25.3523 13.4267 23.4978 13.4267C22.9068 13.4299 22.3273 13.591 21.8191 13.893V8.39062H32.7305C34.1215 8.39062 35.2486 9.51808 35.2486 10.9086V44.4822C35.2486 45.8727 34.1215 47.0002 32.7305 47.0002H14.2651C12.8745 47.0002 11.7471 45.8727 11.7471 44.4822V10.9086Z" fill="white"/>
<path d="M21.8311 16.6768C21.8897 15.7645 22.6671 15.0666 23.5806 15.1072C24.4937 15.1473 25.2069 15.9112 25.1843 16.8248C25.1622 17.7387 24.413 18.467 23.4987 18.4629C22.5585 18.4006 21.8286 17.619 21.8311 16.6768Z" fill="white"/>
</svg>
